<svg width="28" height="28" viewBox="0 0 28 28" xmlns="http://www.w3.org/2000/svg">
<path fill-rule="evenodd" clip-rule="evenodd" d="M8.44444 3.5C5.7137 3.5 3.5 5.7137 3.5 8.44444V19.5556C3.5 22.2863 5.7137 24.5 8.44444 24.5H19.5556C22.2863 24.5 24.5 22.2863 24.5 19.5556V8.44444C24.5 5.7137 22.2863 3.5 19.5556 3.5H8.44444ZM13.9757 12.4829L7.33093 5.83815C7.67252 5.692 8.04873 5.61111 8.44444 5.61111H19.5556C19.9381 5.61111 20.3025 5.68671 20.6349 5.82379L13.9757 12.4829ZM22.1618 20.6691L15.4685 13.9757L22.1471 7.29711C22.3026 7.64764 22.3889 8.03564 22.3889 8.44444V19.5556C22.3889 19.9513 22.308 20.3275 22.1618 20.6691ZM5.61111 8.44444C5.61111 8.04873 5.692 7.67252 5.83815 7.33094L12.4829 13.9757L5.82379 20.6349C5.68671 20.3025 5.61111 19.9381 5.61111 19.5556V8.44444ZM8.44444 22.3889C8.03564 22.3889 7.64764 22.3026 7.29711 22.1471L13.9757 15.4685L20.6691 22.1618C20.3275 22.308 19.9513 22.3889 19.5556 22.3889H8.44444Z"/>
</svg>
