<svg width="28" height="28" viewBox="0 0 28 28" xmlns="http://www.w3.org/2000/svg">
<path fill-rule="evenodd" clip-rule="evenodd" d="M2.49906 7.6501C3.45889 6.59356 4.7607 6 6.11811 6C7.47552 6 8.77733 6.59356 9.73716 7.6501C10.697 8.70665 11.2362 10.1396 11.2362 11.6338V20.3099C11.2362 21.2433 10.5488 22 9.70079 22C8.85279 22 8.16535 21.2433 8.16535 20.3099V17.2676H4.07087V20.3099C4.07087 21.2433 3.38343 22 2.53543 22C1.68744 22 1 21.2433 1 20.3099V11.6338C1 10.1396 1.53923 8.70665 2.49906 7.6501ZM4.07087 13.8873H8.16535V11.6338C8.16535 11.0361 7.94966 10.4629 7.56573 10.0403C7.1818 9.61771 6.66107 9.38028 6.11811 9.38028C5.57515 9.38028 5.05442 9.61771 4.67049 10.0403C4.28656 10.4629 4.07087 11.0361 4.07087 11.6338V13.8873ZM12.4646 7.69014C12.4646 6.7567 13.152 6 14 6H18.2992C19.4666 6 20.5861 6.51046 21.4116 7.41909C22.2371 8.32772 22.7008 9.56008 22.7008 10.8451V12.4225C22.7008 13.7075 22.2371 14.9399 21.4116 15.8485C20.5861 16.7571 19.4666 17.2676 18.2992 17.2676H15.5354V20.3099C15.5354 21.2433 14.848 22 14 22C13.152 22 12.4646 21.2433 12.4646 20.3099V7.69014ZM15.5354 13.8873H18.2992C18.6521 13.8873 18.9906 13.733 19.2402 13.4583C19.4897 13.1836 19.6299 12.811 19.6299 12.4225V10.8451C19.6299 10.4566 19.4897 10.084 19.2402 9.80931C18.9906 9.53461 18.6521 9.38028 18.2992 9.38028H15.5354V13.8873ZM25.4646 6C26.3126 6 27 6.7567 27 7.69014V20.3099C27 21.2433 26.3126 22 25.4646 22C24.6166 22 23.9291 21.2433 23.9291 20.3099V7.69014C23.9291 6.7567 24.6166 6 25.4646 6Z"/>
</svg>
