<svg width="28" height="28" viewBox="0 0 28 28" xmlns="http://www.w3.org/2000/svg">
<path d="M7.67933 20.3H21.5C22.6046 20.3 23.5 19.4046 23.5 18.3V5.6C23.5 5.04305 23.2776 4.5089 22.8817 4.11508C22.4858 3.72125 21.9488 3.5 21.3889 3.5H7.66667C6.39367 3.5 4.5 4.33895 4.5 6.65V21.35C4.5 23.661 6.39367 24.5 7.66667 24.5H22.45C23.0299 24.5 23.5 24.0299 23.5 23.45V23.45C23.5 22.8701 23.0299 22.4 22.45 22.4H7.67933C7.19167 22.3874 6.61111 22.1952 6.61111 21.35C6.61111 20.5047 7.19167 20.3126 7.67933 20.3ZM9.77778 8.75C9.77778 8.1701 10.2479 7.7 10.8278 7.7H18.2278C18.8077 7.7 19.2778 8.1701 19.2778 8.75V8.75C19.2778 9.3299 18.8077 9.8 18.2278 9.8H10.8278C10.2479 9.8 9.77778 9.3299 9.77778 8.75V8.75Z"/>
</svg>
