<svg width="28" height="28" viewBox="0 0 28 28" xmlns="http://www.w3.org/2000/svg">
<path d="M5.29289 21.2929C4.90237 21.6834 4.90237 22.3166 5.29289 22.7071C5.68342 23.0976 6.31658 23.0976 6.70711 22.7071L14 15.4142L21.2929 22.7071C21.6834 23.0976 22.3166 23.0976 22.7071 22.7071C23.0976 22.3166 23.0976 21.6834 22.7071 21.2929L15.4142 14L22.7071 6.70711C23.0976 6.31658 23.0976 5.68342 22.7071 5.29289C22.3166 4.90237 21.6834 4.90237 21.2929 5.29289L14 12.5858L6.70711 5.29289C6.31658 4.90237 5.68342 4.90237 5.29289 5.29289C4.90237 5.68342 4.90237 6.31658 5.29289 6.70711L12.5858 14L5.29289 21.2929Z"/>
</svg>
