<svg width="28" height="28" viewBox="0 0 28 28" xmlns="http://www.w3.org/2000/svg">
<path d="M12.737 3.5C7.02794 3.5 2.3999 8.20098 2.3999 14C2.3999 19.799 7.02794 24.5 12.737 24.5H24.3662C24.9371 24.5 25.3999 24.0299 25.3999 23.45V15.05H15.5444C15.4691 15.05 15.3954 15.0431 15.3242 15.03C14.9191 16.0791 13.9134 16.8219 12.737 16.8219C11.2027 16.8219 9.95889 15.5585 9.95889 14C9.95889 12.4415 11.2027 11.1781 12.737 11.1781C13.9134 11.1781 14.9191 11.9209 15.3242 12.97C15.3954 12.9569 15.4691 12.95 15.5444 12.95H25.3999V4.55C25.3999 3.9701 24.9371 3.5 24.3662 3.5H12.737Z"/>
<path d="M12.0263 14C12.0263 13.6013 12.3445 13.2781 12.737 13.2781C13.1295 13.2781 13.4477 13.6013 13.4477 14C13.4477 14.3987 13.1295 14.7219 12.737 14.7219C12.3445 14.7219 12.0263 14.3987 12.0263 14Z"/>
</svg>
