<svg width="28" height="28" viewBox="0 0 28 28" xmlns="http://www.w3.org/2000/svg">
<path fill-rule="evenodd" clip-rule="evenodd" d="M5.05925 13.2042C6.55678 9.59512 10.0812 7 14.4996 7C18.9179 7 22.4424 9.59512 23.9408 13.2042C24.0197 13.3944 24.0197 13.6056 23.9408 13.7958C22.4424 17.4049 18.9179 20 14.4996 20C10.0812 20 6.55678 17.4049 5.05925 13.7958C4.98025 13.6056 4.98025 13.3944 5.05925 13.2042ZM14.4996 15.9375C15.1867 15.9375 15.8457 15.6807 16.3316 15.2236C16.8175 14.7665 17.0905 14.1465 17.0905 13.5C17.0905 12.8535 16.8175 12.2335 16.3316 11.7764C15.8457 11.3193 15.1867 11.0625 14.4996 11.0625C13.8124 11.0625 13.1534 11.3193 12.6675 11.7764C12.1817 12.2335 11.9087 12.8535 11.9087 13.5C11.9087 14.1465 12.1817 14.7665 12.6675 15.2236C13.1534 15.6807 13.8124 15.9375 14.4996 15.9375Z"/>
</svg>
