<svg width="28" height="28" viewBox="0 0 28 28" xmlns="http://www.w3.org/2000/svg">
<path fill-rule="evenodd" clip-rule="evenodd" d="M3.47631 4.643C4.10143 4.01788 4.94928 3.66669 5.83333 3.66669H14C14.8841 3.66669 15.7319 4.01788 16.357 4.643C16.9821 5.26812 17.3333 6.11596 17.3333 7.00002V9.33335C17.3333 9.88564 16.8856 10.3334 16.3333 10.3334C15.781 10.3334 15.3333 9.88564 15.3333 9.33335V7.00002C15.3333 6.6464 15.1929 6.30726 14.9428 6.05721C14.6928 5.80716 14.3536 5.66669 14 5.66669H5.83333C5.47971 5.66669 5.14057 5.80716 4.89052 6.05721C4.64048 6.30726 4.5 6.6464 4.5 7.00002V21C4.5 21.3536 4.64048 21.6928 4.89052 21.9428C5.14057 22.1929 5.47971 22.3334 5.83333 22.3334H14C14.3536 22.3334 14.6928 22.1929 14.9428 21.9428C15.1929 21.6928 15.3333 21.3536 15.3333 21V18.6667C15.3333 18.1144 15.781 17.6667 16.3333 17.6667C16.8856 17.6667 17.3333 18.1144 17.3333 18.6667V21C17.3333 21.8841 16.9821 22.7319 16.357 23.357C15.7319 23.9822 14.8841 24.3334 14 24.3334H5.83333C4.94928 24.3334 4.10143 23.9822 3.47631 23.357C2.85119 22.7319 2.5 21.8841 2.5 21V7.00002C2.5 6.11597 2.85119 5.26812 3.47631 4.643Z"/>
<path fill-rule="evenodd" clip-rule="evenodd" d="M20.2929 9.79291C20.6834 9.40239 21.3166 9.40239 21.7071 9.79291L25.2071 13.2929C25.5976 13.6834 25.5976 14.3166 25.2071 14.7071L21.7071 18.2071C21.3166 18.5977 20.6834 18.5977 20.2929 18.2071C19.9024 17.8166 19.9024 17.1834 20.2929 16.7929L22.0858 15H10.5C9.94772 15 9.5 14.5523 9.5 14C9.5 13.4477 9.94772 13 10.5 13H22.0858L20.2929 11.2071C19.9024 10.8166 19.9024 10.1834 20.2929 9.79291Z"/>
</svg>
