<svg width="28" height="28" viewBox="0 0 28 28" xmlns="http://www.w3.org/2000/svg">
<path d="M15 8.5C15 9.05228 14.5523 9.5 14 9.5H7C6.44772 9.5 6 9.05228 6 8.5C6 7.94772 6.44772 7.5 7 7.5H14C14.5523 7.5 15 7.94772 15 8.5Z"/>
<path d="M22 14C22 14.5523 21.5523 15 21 15H7C6.44772 15 6 14.5523 6 14C6 13.4477 6.44772 13 7 13H21C21.5523 13 22 13.4477 22 14Z"/>
<path d="M21 20.5C21.5523 20.5 22 20.0523 22 19.5C22 18.9477 21.5523 18.5 21 18.5H14C13.4477 18.5 13 18.9477 13 19.5C13 20.0523 13.4477 20.5 14 20.5H21Z"/>
</svg>
