<svg width="28" height="28" viewBox="0 0 28 28" xmlns="http://www.w3.org/2000/svg">
<path d="M23.8579 7L24.4296 5.76334L25.6663 5.19167C25.7681 5.14527 25.8545 5.07055 25.915 4.97643C25.9755 4.8823 26.0077 4.77275 26.0077 4.66084C26.0077 4.54892 25.9755 4.43937 25.915 4.34524C25.8545 4.25112 25.7681 4.1764 25.6663 4.13L24.4296 3.55834L23.8579 2.33334C23.8115 2.23149 23.7368 2.14515 23.6427 2.0846C23.5486 2.02405 23.439 1.99186 23.3271 1.99186C23.2152 1.99186 23.1056 2.02405 23.0115 2.0846C22.9174 2.14515 22.8427 2.23149 22.7963 2.33334L22.2246 3.57L20.9996 4.14167C20.8978 4.18807 20.8114 4.26279 20.7509 4.35691C20.6903 4.45103 20.6581 4.56059 20.6581 4.6725C20.6581 4.78442 20.6903 4.89397 20.7509 4.98809C20.8114 5.08222 20.8978 5.15693 20.9996 5.20334L22.2363 5.775L22.8079 7C23.0063 7.455 23.6596 7.455 23.8579 7ZM10.4413 7L11.0129 5.76334L12.2496 5.19167C12.3514 5.14527 12.4378 5.07055 12.4983 4.97643C12.5589 4.8823 12.5911 4.77275 12.5911 4.66084C12.5911 4.54892 12.5589 4.43937 12.4983 4.34524C12.4378 4.25112 12.3514 4.1764 12.2496 4.13L11.0129 3.57L10.4413 2.33334C10.3963 2.2316 10.3227 2.14512 10.2295 2.08442C10.1363 2.02371 10.0275 1.99139 9.91626 1.99139C9.80503 1.99139 9.6962 2.02371 9.60299 2.08442C9.50979 2.14512 9.43623 2.2316 9.39126 2.33334L8.8196 3.57L7.58293 4.14167C7.48109 4.18807 7.39474 4.26279 7.33419 4.35691C7.27364 4.45103 7.24145 4.56059 7.24145 4.6725C7.24145 4.78442 7.27364 4.89397 7.33419 4.98809C7.39474 5.08222 7.48109 5.15693 7.58293 5.20334L8.8196 5.775L9.39126 7C9.5896 7.455 10.2429 7.455 10.4413 7ZM22.8079 15.75L22.2363 16.9867L20.9996 17.5583C20.8978 17.6047 20.8114 17.6795 20.7509 17.7736C20.6903 17.8677 20.6581 17.9773 20.6581 18.0892C20.6581 18.2011 20.6903 18.3106 20.7509 18.4048C20.8114 18.4989 20.8978 18.5736 20.9996 18.62L22.2363 19.1917L22.8079 20.4283C22.8543 20.5302 22.929 20.6165 23.0232 20.6771C23.1173 20.7376 23.2268 20.7698 23.3388 20.7698C23.4507 20.7698 23.5602 20.7376 23.6544 20.6771C23.7485 20.6165 23.8232 20.5302 23.8696 20.4283L24.4413 19.1917L25.6663 18.6083C25.7681 18.5619 25.8545 18.4872 25.915 18.3931C25.9755 18.299 26.0077 18.1894 26.0077 18.0775C26.0077 17.9656 25.9755 17.856 25.915 17.7619C25.8545 17.6678 25.7681 17.5931 25.6663 17.5467L24.4296 16.975L23.8579 15.7383C23.6596 15.295 23.0063 15.295 22.8079 15.75ZM20.6613 10.64L17.3596 7.33834C17.2517 7.23018 17.1235 7.14438 16.9823 7.08583C16.8412 7.02729 16.6899 6.99715 16.5371 6.99715C16.3843 6.99715 16.233 7.02729 16.0919 7.08583C15.9507 7.14438 15.8225 7.23018 15.7146 7.33834L2.67126 20.37C2.56311 20.4779 2.4773 20.6061 2.41876 20.7473C2.36021 20.8884 2.33008 21.0397 2.33008 21.1925C2.33008 21.3453 2.36021 21.4966 2.41876 21.6377C2.4773 21.7789 2.56311 21.9071 2.67126 22.015L5.97293 25.3167C6.42793 25.7717 7.16293 25.7717 7.61793 25.3167L20.6496 12.285C21.1163 11.8417 21.1163 11.095 20.6613 10.64ZM16.5779 13.0783L14.9329 11.4333L16.5429 9.82334L18.1879 11.4683L16.5779 13.0783Z"/>
</svg>
