<svg width="28" height="28" viewBox="0 0 28 28" xmlns="http://www.w3.org/2000/svg">
<path d="M14 15.3125C15.5664 15.3125 17.0687 14.6902 18.1763 13.5826C19.284 12.475 19.9062 10.9727 19.9062 9.40625C19.9062 7.83982 19.284 6.33754 18.1763 5.2299C17.0687 4.12226 15.5664 3.5 14 3.5C12.4336 3.5 10.9313 4.12226 9.82365 5.2299C8.71601 6.33754 8.09375 7.83982 8.09375 9.40625C8.09375 10.9727 8.71601 12.475 9.82365 13.5826C10.9313 14.6902 12.4336 15.3125 14 15.3125ZM10.1158 16.625C6.46133 16.625 3.5 19.5863 3.5 23.2408C3.5 23.9381 4.06602 24.5 4.75918 24.5H23.2408C23.9381 24.5 24.5 23.934 24.5 23.2408C24.5 19.5863 21.5387 16.625 17.8842 16.625H10.1158Z"/>
</svg>
