<svg width="60" height="60" viewBox="0 0 60 60" fill="none" xmlns="http://www.w3.org/2000/svg">
<rect width="60" height="60" rx="30" fill="#7A4EC1"/>
<path fill-rule="evenodd" clip-rule="evenodd" d="M29.9994 22.5634C23.9969 22.5634 19.2087 26.142 17.1742 31.1189C17.0669 31.3811 17.0669 31.6723 17.1742 31.9345C19.2087 36.9114 23.9969 40.4899 29.9994 40.4899C36.002 40.4899 40.7902 36.9114 42.8259 31.9345C42.9332 31.6723 42.9332 31.3811 42.8259 31.1189C40.7902 26.142 36.002 22.5634 29.9994 22.5634ZM32.4884 33.9034C31.8283 34.5338 30.933 34.8879 29.9994 34.8879C29.0659 34.8879 28.1706 34.5338 27.5105 33.9034C26.8504 33.2731 26.4796 32.4181 26.4796 31.5267C26.4796 30.6352 26.8504 29.7803 27.5105 29.1499C28.1706 28.5196 29.0659 28.1655 29.9994 28.1655C30.933 28.1655 31.8283 28.5196 32.4884 29.1499C33.1485 29.7803 33.5193 30.6352 33.5193 31.5267C33.5193 32.4181 33.1485 33.2731 32.4884 33.9034Z" fill="white"/>
<path fill-rule="evenodd" clip-rule="evenodd" d="M51.0774 12.9316C53.5883 14.4126 55.1334 17.1377 55.1334 20.0853V44.9716L34.0954 57.3799C31.5634 58.8734 28.4367 58.8734 25.9047 57.3799L4.8667 44.9716V20.0853C4.8667 17.1376 6.41174 14.4126 8.92267 12.9316L30 0.5L51.0774 12.9316ZM51.0577 20.0853V33.603L37.5801 9.75538L49.0297 16.5085C50.2852 17.249 51.0577 18.6115 51.0577 20.0853ZM30.5321 5.59843L30 5.2846L29.468 5.59843L8.94238 41.9169V42.5908L9.47185 42.9031H50.5282L51.0577 42.5908V41.9169L30.5321 5.59843ZM10.9704 16.5085L22.42 9.75539L8.94238 33.603V20.0853C8.94238 18.6115 9.7149 17.249 10.9704 16.5085ZM27.9523 53.8031L16.4858 47.04H43.5143L32.0477 53.8031C30.7817 54.5498 29.2184 54.5498 27.9523 53.8031Z" fill="white"/>
</svg>
