<svg width="22" height="22" viewBox="0 0 22 22" fill="none" xmlns="http://www.w3.org/2000/svg">
<path d="M10.9997 0.236848C8.44617 0.235536 5.97557 1.14324 4.03028 2.79741C2.08499 4.45159 0.792058 6.74421 0.382997 9.26475C-0.0260645 11.7853 0.475462 14.3691 1.79777 16.5536C3.12008 18.7381 5.17682 20.3805 7.59969 21.1868C8.13969 21.2868 8.33469 20.9568 8.33469 20.6868V18.8618C5.33469 19.5118 4.71469 17.4218 4.71469 17.4218C4.51625 16.7606 4.08451 16.1938 3.49969 15.8268C2.52469 15.1618 3.57469 15.1718 3.57469 15.1718C3.91526 15.2195 4.24047 15.3443 4.52554 15.5366C4.81061 15.729 5.04802 15.9839 5.21969 16.2818C6.17969 17.9268 7.71969 17.4518 8.34969 17.1768C8.39943 16.6306 8.6423 16.1201 9.03469 15.7368C6.64469 15.4668 4.13469 14.5468 4.13469 10.4268C4.11885 9.35803 4.51653 8.32441 5.24469 7.54185C4.91387 6.61509 4.95145 5.5967 5.34969 4.69685C5.34969 4.69685 6.24969 4.40685 8.30469 5.79685C10.0659 5.31684 11.9235 5.31684 13.6847 5.79685C15.7397 4.40685 16.6397 4.69685 16.6397 4.69685C17.0349 5.59739 17.0724 6.61462 16.7447 7.54185C17.4715 8.32491 17.8674 9.35863 17.8497 10.4268C17.8497 14.5568 15.3497 15.4618 12.9447 15.7318C13.2027 15.9933 13.4015 16.3073 13.5275 16.6524C13.6534 16.9975 13.7036 17.3656 13.6747 17.7318V20.6818C13.6747 21.0368 13.8697 21.3018 14.4147 21.1818C16.8351 20.3724 18.8885 18.7282 20.2077 16.5435C21.5269 14.3587 22.0258 11.7758 21.6151 9.25694C21.2044 6.73805 19.911 4.44743 17.9661 2.79485C16.0212 1.14227 13.5518 0.235534 10.9997 0.236848Z" fill="#DACDEE"/>
</svg>
