<svg width="593" height="676" viewBox="0 0 593 676" fill="none" xmlns="http://www.w3.org/2000/svg">
<path fill-rule="evenodd" clip-rule="evenodd" d="M296.493 257.153C225.8 257.153 169.408 298.862 145.448 356.868C144.184 359.924 144.184 363.318 145.448 366.375C169.408 424.381 225.8 466.09 296.493 466.09C367.186 466.09 423.578 424.381 447.552 366.375C448.816 363.318 448.816 359.924 447.552 356.868C423.578 298.862 367.186 257.153 296.493 257.153ZM325.806 389.323C318.031 396.669 307.487 400.797 296.493 400.797C285.499 400.797 274.955 396.669 267.181 389.323C259.406 381.976 255.039 372.011 255.039 361.621C255.039 351.231 259.406 341.267 267.181 333.92C274.955 326.573 285.499 322.446 296.493 322.446C307.487 322.446 318.031 326.573 325.806 333.92C333.58 341.267 337.947 351.231 337.947 361.621C337.947 372.011 333.58 381.976 325.806 389.323Z" fill="#7A4EC1"/>
<path fill-rule="evenodd" clip-rule="evenodd" d="M544.732 144.893C574.304 162.153 592.5 193.915 592.5 228.27V518.324L344.732 662.946C314.912 680.352 278.088 680.352 248.268 662.946L0.5 518.324V228.27C0.5 193.915 18.6963 162.153 48.2679 144.893L296.5 0L544.732 144.893ZM544.5 228.27V385.821L385.772 107.873L520.616 186.581C535.402 195.212 544.5 211.093 544.5 228.27ZM302.766 59.4231L296.5 55.7654L290.234 59.4231L48.5 482.721C48.5 482.721 46.9088 487.954 48.5 490.576C49.9627 492.987 54.7358 494.216 54.7358 494.216H538.264C538.264 494.216 542.5 494.216 544.5 490.576C546.5 486.936 544.5 482.721 544.5 482.721L302.766 59.4231ZM72.384 186.581L207.228 107.873L48.5 385.821V228.27C48.5 211.093 57.5981 195.212 72.384 186.581ZM272.384 621.257L137.34 542.432H455.66L320.616 621.257C305.706 629.96 287.294 629.96 272.384 621.257Z" fill="#7A4EC1"/>
</svg>
