<svg width="121" height="43" viewBox="0 0 121 43" fill="none" xmlns="http://www.w3.org/2000/svg">
<path fill-rule="evenodd" clip-rule="evenodd" d="M18.4996 16C14.0812 16 10.5568 18.5951 9.05925 22.2043C8.98025 22.3944 8.98025 22.6056 9.05925 22.7957C10.5568 26.4049 14.0812 29 18.4996 29C22.9179 29 26.4424 26.4049 27.9408 22.7957C28.0197 22.6056 28.0197 22.3944 27.9408 22.2043C26.4424 18.5951 22.9179 16 18.4996 16ZM20.3316 24.2236C19.8457 24.6807 19.1867 24.9375 18.4996 24.9375C17.8124 24.9375 17.1534 24.6807 16.6675 24.2236C16.1817 23.7665 15.9087 23.1465 15.9087 22.5C15.9087 21.8535 16.1817 21.2335 16.6675 20.7764C17.1534 20.3193 17.8124 20.0625 18.4996 20.0625C19.1867 20.0625 19.8457 20.3193 20.3316 20.7764C20.8175 21.2335 21.0905 21.8535 21.0905 22.5C21.0905 23.1465 20.8175 23.7665 20.3316 24.2236Z" fill="#7A4EC1"/>
<path fill-rule="evenodd" clip-rule="evenodd" d="M34.0145 9.01518C35.8627 10.0892 37 12.0653 37 14.2029V32.25L21.5145 41.2483C19.6507 42.3313 17.3493 42.3313 15.4855 41.2483L0 32.25V14.2029C0 12.0653 1.13727 10.0892 2.9855 9.01518L18.5 0L34.0145 9.01518ZM34 14.2029V24.0057L24.0795 6.71184L32.5073 11.6091C33.4314 12.146 34 13.1341 34 14.2029ZM18.8917 3.69729L18.5 3.46971L18.1083 3.69729L3 30.0348V30.5235L3.38974 30.75H33.6103L34 30.5235V30.0348L18.8917 3.69729ZM4.49275 11.6091L12.9205 6.71184L3 24.0057V14.2029C3 13.1341 3.56863 12.146 4.49275 11.6091ZM16.9927 38.6545L8.55253 33.75H28.4475L20.0073 38.6545C19.0754 39.196 17.9246 39.196 16.9927 38.6545Z" fill="#7A4EC1"/>
<path d="M50.46 17.1523C51.3093 16.0949 52.6787 15.5663 54.568 15.5663C55.4173 15.5663 56.1973 15.6789 56.908 15.9043C57.636 16.1123 58.2773 16.3636 58.832 16.6583L60.002 13.4083C59.8633 13.3216 59.6293 13.2003 59.3 13.0443C58.988 12.8883 58.5807 12.7409 58.078 12.6023C57.5927 12.4463 57.0033 12.3163 56.31 12.2123C55.634 12.0909 54.8713 12.0303 54.022 12.0303C52.774 12.0303 51.5953 12.2383 50.486 12.6543C49.394 13.0703 48.4407 13.6856 47.626 14.5003C46.8113 15.2976 46.17 16.2769 45.702 17.4383C45.234 18.5996 45 19.9343 45 21.4423C45 22.9329 45.208 24.2589 45.624 25.4203C46.0573 26.5816 46.664 27.5609 47.444 28.3583C48.224 29.1556 49.16 29.7623 50.252 30.1783C51.3613 30.5943 52.592 30.8023 53.944 30.8023C55.5213 30.8023 56.8473 30.6896 57.922 30.4643C58.9967 30.2563 59.7767 30.0569 60.262 29.8663V20.9483H56.206V27.2143C55.9633 27.2663 55.6773 27.3009 55.348 27.3183C55.036 27.3356 54.6547 27.3443 54.204 27.3443C53.372 27.3443 52.644 27.2056 52.02 26.9283C51.396 26.6336 50.876 26.2263 50.46 25.7063C50.044 25.1863 49.732 24.5709 49.524 23.8603C49.316 23.1323 49.212 22.3263 49.212 21.4423C49.212 19.6223 49.628 18.1923 50.46 17.1523Z" fill="#7A4EC1"/>
<path fill-rule="evenodd" clip-rule="evenodd" d="M103.39 24.8743C103.702 23.8516 103.858 22.7076 103.858 21.4423C103.858 19.8996 103.624 18.5476 103.156 17.3863C102.688 16.2076 102.047 15.2196 101.232 14.4223C100.417 13.6249 99.464 13.0269 98.372 12.6283C97.28 12.2296 96.1186 12.0303 94.888 12.0303C93.692 12.0303 92.548 12.2296 91.456 12.6283C90.3813 13.0269 89.428 13.6249 88.596 14.4223C87.7813 15.2196 87.1313 16.2076 86.646 17.3863C86.1606 18.5476 85.918 19.8996 85.918 21.4423C85.918 22.8289 86.1086 24.0683 86.49 25.1603C86.8713 26.2523 87.4 27.1883 88.076 27.9683C88.752 28.7483 89.5493 29.3723 90.468 29.8403C91.3866 30.2909 92.3833 30.5856 93.458 30.7243C93.666 31.4523 93.9606 32.0936 94.342 32.6483C94.7406 33.2029 95.2693 33.6709 95.928 34.0523C96.604 34.4336 97.4186 34.7283 98.372 34.9363C99.3426 35.1616 100.504 35.3003 101.856 35.3523L102.688 32.3883C101.995 32.3363 101.345 32.2756 100.738 32.2063C100.149 32.1369 99.6286 32.0329 99.178 31.8943C98.7273 31.7556 98.3546 31.5736 98.06 31.3483C97.7653 31.1403 97.5746 30.8629 97.488 30.5163C98.424 30.2909 99.282 29.9269 100.062 29.4243C100.842 28.9216 101.509 28.2889 102.064 27.5263C102.636 26.7636 103.078 25.8796 103.39 24.8743ZM90.416 23.8343C90.208 23.1236 90.104 22.3263 90.104 21.4423C90.104 20.5756 90.208 19.7869 90.416 19.0763C90.6413 18.3483 90.9533 17.7329 91.352 17.2303C91.768 16.7103 92.2706 16.3116 92.86 16.0343C93.4493 15.7396 94.1253 15.5923 94.888 15.5923C95.6333 15.5923 96.3006 15.7309 96.89 16.0083C97.4966 16.2856 97.9993 16.6843 98.398 17.2043C98.814 17.7069 99.126 18.3223 99.334 19.0503C99.5593 19.7609 99.672 20.5583 99.672 21.4423C99.672 22.3263 99.5593 23.1236 99.334 23.8343C99.126 24.5449 98.814 25.1603 98.398 25.6803C97.9993 26.1829 97.4966 26.5729 96.89 26.8503C96.3006 27.1276 95.6333 27.2663 94.888 27.2663C94.1253 27.2663 93.4493 27.1276 92.86 26.8503C92.2706 26.5729 91.768 26.1829 91.352 25.6803C90.9533 25.1603 90.6413 24.5449 90.416 23.8343Z" fill="#7A4EC1"/>
<path d="M120.277 30.4643V26.9803H112.295V12.4463H108.239V30.4643H120.277Z" fill="#7A4EC1"/>
<path d="M83.8765 28.4103C83.8765 29.1903 83.6252 29.7883 83.1225 30.2043C82.6372 30.6029 82.0825 30.8023 81.4585 30.8023C80.8345 30.8023 80.2712 30.6029 79.7685 30.2043C79.2832 29.7883 79.0405 29.1903 79.0405 28.4103C79.0405 27.6303 79.2832 27.0409 79.7685 26.6423C80.2712 26.2263 80.8345 26.0183 81.4585 26.0183C82.0825 26.0183 82.6372 26.2263 83.1225 26.6423C83.6252 27.0409 83.8765 27.6303 83.8765 28.4103Z" fill="#7A4EC1"/>
<path d="M75.7241 30.2043C76.2268 29.7883 76.4781 29.1903 76.4781 28.4103C76.4781 27.6303 76.2268 27.0409 75.7241 26.6423C75.2388 26.2263 74.6841 26.0183 74.0601 26.0183C73.4361 26.0183 72.8728 26.2263 72.3701 26.6423C71.8848 27.0409 71.6421 27.6303 71.6421 28.4103C71.6421 29.1903 71.8848 29.7883 72.3701 30.2043C72.8728 30.6029 73.4361 30.8023 74.0601 30.8023C74.6841 30.8023 75.2388 30.6029 75.7241 30.2043Z" fill="#7A4EC1"/>
<path d="M69.0797 28.4103C69.0797 29.1903 68.8283 29.7883 68.3257 30.2043C67.8403 30.6029 67.2857 30.8023 66.6617 30.8023C66.0377 30.8023 65.4743 30.6029 64.9717 30.2043C64.4863 29.7883 64.2437 29.1903 64.2437 28.4103C64.2437 27.6303 64.4863 27.0409 64.9717 26.6423C65.4743 26.2263 66.0377 26.0183 66.6617 26.0183C67.2857 26.0183 67.8403 26.2263 68.3257 26.6423C68.8283 27.0409 69.0797 27.6303 69.0797 28.4103Z" fill="#7A4EC1"/>
</svg>
