<svg width="592" height="676" viewBox="0 0 592 676" fill="none" xmlns="http://www.w3.org/2000/svg">
<g opacity="0.1">
<path fill-rule="evenodd" clip-rule="evenodd" d="M295.993 257.153C225.3 257.153 168.908 298.862 144.948 356.868C143.684 359.924 143.684 363.318 144.948 366.375C168.908 424.381 225.3 466.09 295.993 466.09C366.686 466.09 423.078 424.381 447.052 366.375C448.316 363.318 448.316 359.924 447.052 356.868C423.078 298.862 366.686 257.153 295.993 257.153ZM325.306 389.323C317.531 396.67 306.987 400.797 295.993 400.797C284.999 400.797 274.455 396.67 266.681 389.323C258.906 381.976 254.539 372.011 254.539 361.621C254.539 351.231 258.906 341.267 266.681 333.92C274.455 326.573 284.999 322.446 295.993 322.446C306.987 322.446 317.531 326.573 325.306 333.92C333.08 341.267 337.447 351.231 337.447 361.621C337.447 372.011 333.08 381.976 325.306 389.323Z" fill="#7A4EC1"/>
<path fill-rule="evenodd" clip-rule="evenodd" d="M544.232 144.893C573.804 162.153 592 193.915 592 228.27V518.324L344.232 662.946C314.412 680.352 277.588 680.352 247.768 662.946L0 518.324V228.27C0 193.915 18.1963 162.153 47.7679 144.893L296 0L544.232 144.893ZM544 228.27V385.821L385.272 107.873L520.116 186.581C534.902 195.212 544 211.093 544 228.27ZM302.266 59.4231L296 55.7654L289.734 59.4231L48 482.721C48 482.721 46.4088 487.954 48 490.576C49.4627 492.987 54.2358 494.216 54.2358 494.216H537.764C537.764 494.216 542 494.216 544 490.576C546 486.936 544 482.721 544 482.721L302.266 59.4231ZM71.884 186.581L206.728 107.873L48 385.821V228.27C48 211.093 57.0981 195.212 71.884 186.581ZM271.884 621.257L136.84 542.432H455.16L320.116 621.257C305.206 629.96 286.794 629.96 271.884 621.257Z" fill="#7A4EC1"/>
</g>
</svg>
