<svg width="368" height="153" viewBox="0 0 368 153" fill="none" xmlns="http://www.w3.org/2000/svg">
<g filter="url(#filter0_d_48_8195)">
<path fill-rule="evenodd" clip-rule="evenodd" d="M189.47 53.0846L205.456 52.0579C205.821 54.655 206.489 56.5877 207.583 57.9769C209.346 60.1513 211.777 61.2384 214.999 61.2384C217.369 61.2384 219.253 60.6948 220.53 59.5473C221.745 58.6413 222.475 57.1917 222.475 55.6818C222.475 54.2322 221.806 52.843 220.651 51.9371C219.436 50.8499 216.579 49.7627 212.081 48.7963C204.726 47.1656 199.439 44.9912 196.339 42.2129C193.239 39.6158 191.476 35.8107 191.598 31.764C191.598 28.9857 192.449 26.2073 194.029 23.9122C195.852 21.3151 198.344 19.2615 201.323 18.1139C204.544 16.7248 209.042 16 214.695 16C221.624 16 226.912 17.2684 230.559 19.8655C234.206 22.4022 236.394 26.5093 237.062 32.1264L221.259 33.0324C220.834 30.6164 219.983 28.8649 218.585 27.7173C217.187 26.5697 215.363 26.0261 212.993 26.0261C211.048 26.0261 209.589 26.4489 208.617 27.2341C207.705 27.9589 207.097 29.0461 207.158 30.254C207.158 31.16 207.644 32.0056 208.373 32.5492C209.164 33.274 211.048 33.9383 214.026 34.5423C221.381 36.1127 226.608 37.683 229.829 39.3138C233.051 40.9446 235.36 42.9377 236.758 45.2932C236.882 45.4977 237 45.7047 237.113 45.9141C239.972 38.8688 245.011 32.2215 251.908 27.0565C269.148 14.1471 292.144 14.8798 303.141 29.3801C314.137 43.8804 308.508 66.0487 291.269 78.9581C290.503 79.5315 289.726 80.0779 288.939 80.5974C294.95 81.5043 299.79 83.7688 303.435 87.391C305.887 89.827 307.736 92.7542 308.967 96.1726V81.1095H309.028H325.803V121.818H352V135.106H308.967V119.974C308.566 121.121 308.099 122.198 307.569 123.207C305.502 127.194 302.281 130.455 298.33 132.629C294.257 134.864 289.213 136.012 283.195 136.012C277.056 136.012 272.011 135.045 268 133.113C263.867 131.059 260.463 127.858 258.214 123.932C255.722 119.704 254.446 114.449 254.446 108.108C254.446 99.5494 256.793 92.8117 261.432 87.9496C252.892 87.1596 245.161 83.3921 240.036 76.6345C237.262 72.9756 235.545 68.8284 234.807 64.465C232.938 66.6877 230.574 68.4349 227.884 69.5734C224.42 71.0834 220.043 71.8685 214.816 71.8685C205.577 71.8685 199.195 70.117 195.609 66.5535C192.023 62.99 189.896 58.5205 189.47 53.0846ZM19.8292 70.9022V16.9664H47.8495C53.0159 16.9664 57.0275 17.3892 59.7627 18.2951C62.437 19.1407 64.8075 20.8923 66.3878 23.2478C68.1505 25.8449 69.0014 28.8649 68.9407 32.0056C69.123 37.3206 66.3878 42.3941 61.7077 45.0516C59.8842 46.0784 57.8784 46.8032 55.8119 47.1656C57.3314 47.5884 58.8509 48.3132 60.1881 49.1587C61.2214 50.0043 62.0724 50.9707 62.8625 51.9975C63.7742 53.0242 64.5644 54.1718 65.233 55.3798L73.3777 71.023H54.2923L45.2967 54.4134C44.1418 52.2995 43.1693 50.9103 42.2576 50.2459C41.042 49.4003 39.5832 48.9775 38.1245 48.9775H36.6657V70.9022H19.8292ZM36.6657 38.8306H43.7771C45.2967 38.7098 46.7554 38.4682 48.2142 38.1058C49.3083 37.9246 50.2808 37.3206 50.9493 36.4147C52.5905 34.2403 52.3473 31.16 50.3415 29.2877C49.2475 28.3817 47.1201 27.8985 44.081 27.8985H36.6657V38.8306ZM16 117.228L31.9855 116.201C32.3502 118.798 33.0188 120.731 34.1129 122.12C35.8148 124.294 38.3068 125.442 41.5282 125.442C43.8987 125.442 45.7829 124.898 47.0593 123.751C48.275 122.784 49.0043 121.395 49.0043 119.885C49.0043 118.436 48.3357 117.047 47.1809 116.141C45.9653 115.053 43.1085 113.966 38.5499 113C31.1954 111.369 25.9074 109.195 22.8075 106.416C19.7077 103.819 17.945 100.014 18.0666 95.9675C18.0666 93.1892 18.9175 90.4109 20.4978 88.1157C22.3213 85.5186 24.8133 83.465 27.7916 82.3175C31.013 80.9283 35.5109 80.2035 41.1635 80.2035C48.0926 80.2035 53.3806 81.4719 57.0275 84.069C59.5865 85.8914 61.3973 88.4275 62.4809 91.7189C63.4243 90.1228 64.5439 88.6798 65.8409 87.391C70.6427 82.6195 77.3894 80.2036 86.1419 80.2036C93.0103 80.2036 98.359 81.5927 102.31 84.3107C106.2 87.089 109.117 91.3169 111.062 96.9943L96.2317 100.256C95.867 98.9875 95.32 97.7191 94.5906 96.6319C93.6789 95.3636 92.524 94.3972 91.126 93.6724C89.7281 92.9476 88.1477 92.6456 86.5674 92.6456C82.7382 92.6456 79.8207 94.1556 77.8149 97.2359C76.2953 99.4707 75.5052 103.034 75.5052 107.866C75.5052 113.845 76.4169 117.953 78.2404 120.187C80.0638 122.422 82.6166 123.509 85.9596 123.509C89.181 123.509 91.6123 122.603 93.2534 120.852C94.8945 118.979 96.1101 116.382 96.8395 113L111.549 117.409C110.758 121.093 109.117 124.596 106.868 127.677C104.802 130.395 102.067 132.509 98.9668 133.898C95.8062 135.287 91.7946 136.012 86.9321 136.012C81.0363 136.012 76.1738 135.166 72.4661 133.475C68.9999 131.919 65.9965 129.24 63.4087 125.483C63.1157 126.048 62.7914 126.599 62.437 127.133C60.4313 130.093 57.6353 132.388 54.3531 133.777C50.8886 135.287 46.5123 136.072 41.2851 136.072C32.0463 136.072 25.6643 134.321 22.0781 130.757C18.492 127.133 16.4863 122.664 16 117.228ZM47.6672 97.2359L60.324 96.5103C59.4709 99.0908 58.9489 101.959 58.7549 105.111C57.9888 104.591 57.1496 104.1 56.2373 103.638C53.0159 102.007 47.7887 100.437 40.4342 98.8666C37.4559 98.2627 35.5716 97.5983 34.7815 96.8735C34.0521 96.3299 33.5658 95.4843 33.5658 94.5784C33.5051 93.3704 34.0521 92.2832 35.0246 91.5584C35.9971 90.7129 37.4559 90.2901 39.4009 90.2901C41.7713 90.2297 43.6556 90.7733 44.9928 91.9208C46.3907 93.0684 47.2417 94.82 47.6672 97.2359ZM131.181 81.1095H147.957V100.014H166.313V81.1095H183.21V95.1794C184.431 92.2361 186.135 89.6785 188.315 87.5118C193.239 82.6195 200.168 80.1432 208.981 80.1432C218.038 80.1432 224.967 82.5591 229.89 87.391C234.813 92.2229 237.244 98.9875 237.244 107.685C237.244 114.027 236.15 119.161 234.023 123.207C231.956 127.194 228.735 130.455 224.784 132.629C220.712 134.864 215.667 136.012 209.65 136.012C203.511 136.012 198.466 135.045 194.454 133.113C190.321 131.059 186.917 127.858 184.668 123.932C184.124 123.008 183.638 122.036 183.21 121.014V135.106H166.313V113.242H147.957V135.106H131.181V81.1095ZM200.715 119.946C198.709 117.53 197.676 113.604 197.676 108.168C197.676 102.672 198.709 98.7459 200.776 96.3904C202.842 94.0348 205.82 92.7061 208.92 92.8268C212.446 92.8268 215.242 93.9744 217.308 96.33C219.375 98.6251 220.408 102.37 220.408 107.443C220.408 113.483 219.435 117.651 217.43 120.006C215.424 122.362 212.628 123.509 209.042 123.509C205.517 123.509 202.721 122.301 200.715 119.946ZM274.26 119.946C272.255 117.53 271.221 113.604 271.221 108.168C271.221 102.672 272.255 98.7459 274.321 96.3904C276.327 94.0348 279.366 92.7061 282.466 92.8268C285.991 92.8268 288.787 93.9744 290.854 96.33C292.92 98.6251 293.954 102.37 293.954 107.443C293.954 113.483 292.981 117.651 290.975 120.006C288.97 122.362 286.174 123.509 282.587 123.509C279.062 123.509 276.266 122.301 274.26 119.946ZM253.372 28.9859C236.832 41.3714 232.045 62.0819 241.978 75.1805C251.912 88.2791 273.266 89.4142 289.805 77.0287C306.345 64.6432 311.132 43.9327 301.199 30.8341C291.265 17.7355 269.911 16.6004 253.372 28.9859ZM260.585 44.8101L254.506 49.038L263.016 60.9364C263.684 61.7216 264.11 62.7484 264.292 63.7752C264.353 64.5 263.928 65.2247 263.32 65.5871C263.016 65.8287 262.59 66.0099 262.165 66.0099C261.618 66.0099 261.132 65.8287 260.706 65.5267C260.098 65.0435 259.551 64.4396 259.126 63.7752L253.899 68.607C254.871 69.9358 256.148 70.9626 257.606 71.6874C258.944 72.2914 260.402 72.5329 261.8 72.2914C263.259 72.0498 264.961 71.2646 266.967 69.8754C268.669 68.7882 269.945 67.2783 270.735 65.4663C271.343 64.0168 271.465 62.386 271.039 60.876C270.31 58.8829 269.337 57.0709 268.061 55.3798L260.585 44.8101ZM278.272 51.3935L272.741 55.7422C274.139 57.4937 276.084 58.7017 278.454 59.0641C280.642 59.4265 283.378 58.4601 286.721 56.165C288.362 55.0778 289.76 53.6886 290.854 52.0579C291.705 50.7291 292.13 49.2192 292.069 47.6488C292.009 46.1388 291.522 44.6893 290.671 43.4813C290.003 42.4545 289.03 41.6089 287.875 41.1258C286.599 40.5822 285.201 40.4614 283.864 40.703C282.284 40.9446 279.974 41.6693 276.935 42.9377C275.719 43.4813 274.868 43.7229 274.382 43.6625C273.957 43.6625 273.592 43.4209 273.349 43.1189C273.045 42.6961 272.923 42.1525 273.106 41.6693C273.349 41.005 273.774 40.4614 274.382 40.099L274.564 39.9178C275.962 38.8306 278.029 39.1326 279.123 40.5218L284.593 36.2335C282.891 34.3611 281.068 33.4552 279.123 33.4552C277.178 33.4552 274.929 34.3007 272.376 36.0523C270.674 37.1395 269.276 38.5286 268.122 40.1594C267.331 41.307 266.967 42.6961 266.967 44.0853C267.027 45.2933 267.392 46.5012 268.122 47.528C269.094 49.038 270.735 49.9439 272.498 50.1251C274.321 50.3063 276.753 49.8231 279.852 48.5548C281.737 47.7696 283.013 47.4676 283.742 47.528C283.925 47.528 284.107 47.5884 284.289 47.6488C285.383 48.0112 285.991 49.2192 285.627 50.3063C285.383 51.1519 284.776 51.8163 284.046 52.2995C283.013 53.0847 281.737 53.3262 280.521 52.9639C279.67 52.6619 278.88 52.1183 278.272 51.3935Z" fill="#7A4EC1"/>
</g>
<defs>
<filter id="filter0_d_48_8195" x="0" y="0" width="368" height="152.072" filterUnits="userSpaceOnUse" color-interpolation-filters="sRGB">
<feFlood flood-opacity="0" result="BackgroundImageFix"/>
<feColorMatrix in="SourceAlpha" type="matrix" values="0 0 0 0 0 0 0 0 0 0 0 0 0 0 0 0 0 0 127 0" result="hardAlpha"/>
<feOffset/>
<feGaussianBlur stdDeviation="8"/>
<feComposite in2="hardAlpha" operator="out"/>
<feColorMatrix type="matrix" values="0 0 0 0 0.490196 0 0 0 0 0.537255 0 0 0 0 0.458824 0 0 0 0.25 0"/>
<feBlend mode="normal" in2="BackgroundImageFix" result="effect1_dropShadow_48_8195"/>
<feBlend mode="normal" in="SourceGraphic" in2="effect1_dropShadow_48_8195" result="shape"/>
</filter>
</defs>
</svg>
