<svg width="87" height="32" viewBox="0 0 87 32" fill="none" xmlns="http://www.w3.org/2000/svg">
<path fill-rule="evenodd" clip-rule="evenodd" d="M45.0654 10.5572L49.1898 10.2923C49.2839 10.9625 49.4564 11.4613 49.7387 11.8198C50.1935 12.3809 50.8208 12.6615 51.6519 12.6615C52.2635 12.6615 52.7497 12.5212 53.079 12.225C53.3927 11.9912 53.5808 11.6171 53.5808 11.2275C53.5808 10.8534 53.4083 10.4949 53.1104 10.2611C52.7967 9.98051 52.0597 9.69995 50.8992 9.45056C49.0017 9.02971 47.6373 8.46858 46.8375 7.75158C46.0377 7.08134 45.583 6.09936 45.6143 5.05504C45.6143 4.33804 45.8339 3.62104 46.2416 3.02874C46.7121 2.3585 47.355 1.82854 48.1235 1.53239C48.9546 1.17389 50.1151 0.986847 51.5735 0.986847C53.3613 0.986847 54.7256 1.31417 55.6666 1.98441C56.6075 2.63906 57.1721 3.69898 57.3446 5.14856L53.2672 5.38237C53.1574 4.75889 52.9379 4.30687 52.5772 4.01071C52.2165 3.71456 51.746 3.57428 51.1344 3.57428C50.6326 3.57428 50.2562 3.68339 50.0053 3.88602C49.7701 4.07306 49.6133 4.35363 49.6289 4.66537C49.6289 4.89917 49.7544 5.11739 49.9426 5.25767C50.1465 5.44471 50.6326 5.61617 51.401 5.77204C53.2986 6.1773 54.6472 6.58256 55.4784 7.00341C56.3095 7.42426 56.9055 7.93862 57.2662 8.54652C57.298 8.59927 57.3285 8.65269 57.3576 8.70674C58.0953 6.88857 59.3954 5.17312 61.175 3.84018C65.6229 0.508681 71.5562 0.697768 74.3933 4.43983C77.2305 8.1819 75.7781 13.9029 71.3303 17.2344C71.1327 17.3823 70.9322 17.5233 70.7292 17.6574C72.28 17.8914 73.529 18.4758 74.4694 19.4106C75.1019 20.0393 75.579 20.7947 75.8965 21.6769V17.7896H75.9122H80.2405V28.2952H86.9995V31.7243H75.8965V27.8194C75.7931 28.1153 75.6727 28.3932 75.5358 28.6537C75.0026 29.6824 74.1715 30.5241 73.1521 31.0852C72.1014 31.662 70.7998 31.9581 69.2473 31.9581C67.6634 31.9581 66.3618 31.7087 65.3268 31.2099C64.2604 30.68 63.3822 29.8539 62.8019 28.8407C62.159 27.7496 61.8296 26.3936 61.8296 24.757C61.8296 22.5483 62.4353 20.8095 63.6322 19.5548C61.4288 19.3509 59.4341 18.3786 58.1119 16.6347C57.396 15.6905 56.9532 14.6202 56.7628 13.4941C56.2804 14.0678 55.6706 14.5186 54.9766 14.8125C54.0827 15.2021 52.9536 15.4048 51.6049 15.4048C49.2212 15.4048 47.5746 14.9528 46.6493 14.0331C45.7241 13.1135 45.1752 11.9601 45.0654 10.5572ZM1.29657 15.1554V1.23624H8.52604C9.85902 1.23624 10.894 1.34535 11.5997 1.57915C12.2898 1.79737 12.9014 2.24939 13.3091 2.85728C13.7639 3.52752 13.9834 4.30687 13.9677 5.11739C14.0148 6.48904 13.3091 7.79834 12.1016 8.48417C11.6311 8.74915 11.1136 8.93619 10.5804 9.02971C10.9725 9.13882 11.3645 9.32586 11.7095 9.54408C11.9761 9.7623 12.1957 10.0117 12.3995 10.2767C12.6348 10.5416 12.8386 10.8378 13.0111 11.1495L15.1125 15.1866H10.1883L7.86739 10.9001C7.56943 10.3546 7.31851 9.9961 7.08328 9.82465C6.76964 9.60643 6.39327 9.49732 6.0169 9.49732H5.64052V15.1554H1.29657ZM5.64052 6.87871H7.47534C7.86739 6.84754 8.24376 6.78519 8.62013 6.69167C8.90241 6.64491 9.15333 6.48904 9.32583 6.25523C9.74925 5.69411 9.68652 4.89917 9.16901 4.41597C8.88673 4.18217 8.33785 4.05748 7.55375 4.05748H5.64052V6.87871ZM0.308594 27.1106L4.433 26.8456C4.52709 27.5158 4.69959 28.0146 4.98187 28.3731C5.42097 28.9342 6.06394 29.2304 6.8951 29.2304C7.5067 29.2304 7.99285 29.0901 8.32217 28.794C8.63581 28.5446 8.824 28.1861 8.824 27.7964C8.824 27.4223 8.6515 27.0638 8.35354 26.83C8.03989 26.5494 7.30283 26.2689 6.12667 26.0195C4.22913 25.5986 2.86478 25.0375 2.06499 24.3205C1.2652 23.6503 0.810422 22.6683 0.841787 21.624C0.841787 20.907 1.06134 20.19 1.46907 19.5977C1.93954 18.9274 2.58251 18.3975 3.35093 18.1013C4.18208 17.7428 5.34256 17.5558 6.801 17.5558C8.58877 17.5558 9.95311 17.8831 10.894 18.5533C11.5543 19.0236 12.0215 19.6781 12.3011 20.5275C12.5445 20.1156 12.8334 19.7432 13.168 19.4106C14.4069 18.1793 16.1476 17.5558 18.4058 17.5558C20.1779 17.5558 21.5579 17.9143 22.5773 18.6157C23.5809 19.3327 24.3337 20.4238 24.8355 21.8889L21.0091 22.7306C20.915 22.4033 20.7738 22.076 20.5856 21.7954C20.3504 21.4681 20.0524 21.2187 19.6918 21.0317C19.3311 20.8446 18.9233 20.7667 18.5156 20.7667C17.5276 20.7667 16.7749 21.1564 16.2574 21.9513C15.8653 22.528 15.6614 23.4476 15.6614 24.6946C15.6614 26.2377 15.8967 27.2976 16.3671 27.8743C16.8376 28.4511 17.4963 28.7316 18.3588 28.7316C19.1899 28.7316 19.8172 28.4978 20.2406 28.0458C20.6641 27.5626 20.9777 26.8924 21.1659 26.0195L24.961 27.1573C24.7571 28.1081 24.3337 29.0122 23.7534 29.8071C23.2202 30.5085 22.5145 31.0541 21.7148 31.4126C20.8993 31.7711 19.8643 31.9581 18.6097 31.9581C17.0885 31.9581 15.834 31.7399 14.8773 31.3035C13.983 30.902 13.2081 30.2105 12.5404 29.241C12.4649 29.3869 12.3812 29.529 12.2898 29.6668C11.7722 30.4306 11.0509 31.0229 10.204 31.3814C9.31015 31.7711 8.18103 31.9737 6.83237 31.9737C4.44868 31.9737 2.80206 31.5217 1.87681 30.602C0.951562 29.6668 0.434051 28.5134 0.308594 27.1106ZM8.47899 21.9513L11.7446 21.764C11.5245 22.43 11.3898 23.1701 11.3397 23.9836C11.1421 23.8494 10.9256 23.7227 10.6902 23.6035C9.85902 23.1827 8.51036 22.7774 6.61282 22.3721C5.84439 22.2163 5.35825 22.0448 5.15438 21.8578C4.96619 21.7175 4.84073 21.4993 4.84073 21.2655C4.82505 20.9537 4.96619 20.6732 5.21711 20.4861C5.46802 20.2679 5.84439 20.1588 6.34622 20.1588C6.95782 20.1432 7.44397 20.2835 7.78898 20.5796C8.14967 20.8758 8.36922 21.3278 8.47899 21.9513ZM30.0263 17.7896H34.3546V22.6683H39.0906V17.7896H43.4502V21.4206C43.7653 20.661 44.2049 20.001 44.7675 19.4418C46.0377 18.1793 47.8255 17.5402 50.0994 17.5402C52.436 17.5402 54.2238 18.1637 55.494 19.4106C56.7643 20.6576 57.3916 22.4033 57.3916 24.6478C57.3916 26.2845 57.1093 27.6094 56.5604 28.6537C56.0272 29.6824 55.1961 30.5241 54.1767 31.0852C53.126 31.662 51.8244 31.9581 50.2719 31.9581C48.688 31.9581 47.3864 31.7087 46.3514 31.2099C45.285 30.68 44.4068 29.8539 43.8265 28.8407C43.6861 28.6024 43.5606 28.3514 43.4502 28.0876V31.7243H39.0906V26.0818H34.3546V31.7243H30.0263V17.7896ZM47.9666 27.812C47.4491 27.1885 47.1825 26.1754 47.1825 24.7725C47.1825 23.3541 47.4491 22.341 47.9823 21.7331C48.5155 21.1252 49.2839 20.7823 50.0837 20.8135C50.9933 20.8135 51.7146 21.1096 52.2478 21.7175C52.781 22.3098 53.0476 23.2762 53.0476 24.5855C53.0476 26.1442 52.7967 27.2197 52.2792 27.8276C51.7617 28.4355 51.0403 28.7316 50.1151 28.7316C49.2055 28.7316 48.4841 28.4199 47.9666 27.812ZM66.942 27.812C66.4245 27.1885 66.1579 26.1754 66.1579 24.7725C66.1579 23.3541 66.4245 22.341 66.9577 21.7331C67.4752 21.1252 68.2593 20.7823 69.0591 20.8135C69.9687 20.8135 70.69 21.1096 71.2232 21.7175C71.7564 22.3098 72.023 23.2762 72.023 24.5855C72.023 26.1442 71.7721 27.2197 71.2546 27.8276C70.7371 28.4355 70.0157 28.7316 69.0905 28.7316C68.1809 28.7316 67.4595 28.4199 66.942 27.812ZM61.5525 4.33811C57.2851 7.53442 56.05 12.8791 58.6129 16.2595C61.1758 19.6398 66.6853 19.9327 70.9527 16.7364C75.2201 13.5401 76.4553 8.1954 73.8924 4.81506C71.3294 1.43472 65.8199 1.14179 61.5525 4.33811ZM63.4135 8.42182L61.8453 9.51291L64.0408 12.5835C64.2133 12.7862 64.3231 13.0511 64.3702 13.3161C64.3858 13.5032 64.2761 13.6902 64.1192 13.7837C64.0408 13.8461 63.9311 13.8928 63.8213 13.8928C63.6801 13.8928 63.5547 13.8461 63.4449 13.7681C63.2881 13.6434 63.1469 13.4876 63.0372 13.3161L61.6885 14.5631C61.9394 14.906 62.2687 15.171 62.6451 15.358C62.9901 15.5139 63.3665 15.5762 63.7272 15.5139C64.1036 15.4515 64.5427 15.2489 65.0602 14.8904C65.4993 14.6098 65.8286 14.2202 66.0325 13.7526C66.1893 13.3785 66.2206 12.9576 66.1109 12.568C65.9227 12.0536 65.6718 11.586 65.3424 11.1495L63.4135 8.42182ZM67.977 10.1208L66.55 11.2431C66.9107 11.6951 67.4125 12.0068 68.0241 12.1003C68.5886 12.1939 69.2943 11.9445 70.1569 11.3522C70.5803 11.0716 70.941 10.7131 71.2233 10.2923C71.4428 9.94935 71.5526 9.55967 71.5369 9.15441C71.5212 8.76474 71.3958 8.39065 71.1762 8.07891C71.0037 7.81393 70.7528 7.59572 70.4548 7.47102C70.1255 7.33074 69.7648 7.29956 69.4198 7.36191C69.0121 7.42426 68.4161 7.6113 67.632 7.93863C67.3184 8.07891 67.0988 8.14126 66.9734 8.12567C66.8636 8.12567 66.7695 8.06332 66.7068 7.98539C66.6284 7.87628 66.597 7.736 66.6441 7.6113C66.7068 7.43985 66.8166 7.29956 66.9734 7.20604L67.0204 7.15928C67.3811 6.87872 67.9143 6.95665 68.1966 7.31515L69.608 6.20848C69.1689 5.72528 68.6984 5.49148 68.1966 5.49148C67.6948 5.49148 67.1145 5.70969 66.4559 6.16172C66.0168 6.44228 65.6561 6.80078 65.3581 7.22163C65.1543 7.51778 65.0602 7.87628 65.0602 8.23478C65.0759 8.54652 65.1699 8.85826 65.3581 9.12324C65.609 9.51291 66.0325 9.74671 66.4872 9.79347C66.9577 9.84024 67.585 9.71554 68.3848 9.38821C68.8709 9.18558 69.2002 9.10765 69.3884 9.12324C69.4355 9.12324 69.4825 9.13882 69.5296 9.15441C69.8119 9.24793 69.9687 9.55967 69.8746 9.84024C69.8119 10.0585 69.655 10.2299 69.4669 10.3546C69.2002 10.5572 68.8709 10.6196 68.5573 10.5261C68.3377 10.4481 68.1339 10.3078 67.977 10.1208Z" fill="white"/>
</svg>
